<svg width="78" height="78" viewBox="0 0 78 78" fill="none" xmlns="http://www.w3.org/2000/svg">
<path fill-rule="evenodd" clip-rule="evenodd" d="M48.1255 67.6794C48.4544 67.4706 48.8134 67.3124 49.1865 67.2006C63.3318 62.9621 73.64 49.8448 73.64 34.32C73.64 15.3656 58.2744 0 39.32 0C20.3656 0 5 15.3656 5 34.32C5 47.8227 12.7978 59.5042 24.1359 65.1068C24.1487 65.1132 24.1434 65.1326 24.1292 65.1315C24.12 65.1308 24.113 65.1396 24.1158 65.1483L27.2238 74.9903C28.0147 77.4949 30.9638 78.5705 33.1814 77.1631L48.1255 67.6794Z" fill="#48BB78"/>
<path d="M48.8134 26.638C49.6418 25.8096 49.6418 24.4664 48.8134 23.638L48.362 23.1866C47.5336 22.3581 46.1904 22.3581 45.362 23.1866L39 29.5486L32.6379 23.1866C31.8095 22.3581 30.4664 22.3581 29.638 23.1866L29.1865 23.638C28.3581 24.4664 28.3581 25.8096 29.1865 26.638L35.5486 33L29.1865 39.3621C28.3581 40.1905 28.3581 41.5336 29.1865 42.362L29.638 42.8135C30.4664 43.6419 31.8095 43.6419 32.6379 42.8135L39 36.4514L45.362 42.8135C46.1904 43.6419 47.5336 43.6419 48.362 42.8135L48.8134 42.362C49.6419 41.5336 49.6418 40.1905 48.8134 39.3621L42.4514 33L48.8134 26.638Z" fill="#3C2F2F"/>
</svg>
