<svg width="78" height="78" viewBox="0 0 78 78" fill="none" xmlns="http://www.w3.org/2000/svg">
<path fill-rule="evenodd" clip-rule="evenodd" d="M39.0001 68.64C57.9545 68.64 73.3201 53.2744 73.3201 34.32C73.3201 15.3656 57.9545 0 39.0001 0C20.0456 0 4.68005 15.3656 4.68005 34.32C4.68005 44.9926 9.55162 54.5274 17.1924 60.822C17.2046 60.832 17.1937 60.8515 17.1788 60.8464C17.1696 60.8433 17.1601 60.8501 17.1601 60.8598V71.5042C17.1601 74.4834 20.3003 76.4171 22.9606 75.076L34.972 69.0212C35.6355 68.6867 36.3787 68.5494 37.1206 68.5894C37.7428 68.623 38.3695 68.64 39.0001 68.64Z" fill="#276749"/>
<path fill-rule="evenodd" clip-rule="evenodd" d="M50.3012 24.3463C51.3603 25.1584 51.5625 26.6744 50.7531 27.7356L38.7428 43.4829C38.3193 44.0381 37.6774 44.3832 36.9817 44.4295C36.2861 44.4757 35.6044 44.2188 35.1114 43.7245L27.4884 36.0814C26.5456 35.1362 26.5456 33.6063 27.4884 32.6611C28.4346 31.7124 29.9715 31.7124 30.9177 32.6611L36.5784 38.3367L46.9033 24.7994C47.7155 23.7344 49.2382 23.5313 50.3012 24.3463Z" fill="white"/>
</svg>
